<svg width="222" height="2" viewBox="0 0 222 2" fill="none" xmlns="http://www.w3.org/2000/svg"><path d="M0 1C0 0.447715 0.447715 0 1 0C1.55228 0 2 0.447715 2 1C2 1.55228 1.55228 2 1 2C0.447715 2 0 1.55228 0 1Z" fill="#13AAF7"/><path d="M5 1C5 0.447715 5.44772 0 6 0C6.55228 0 7 0.447715 7 1C7 1.55228 6.55228 2 6 2C5.44772 2 5 1.55228 5 1Z" fill="#13AAF7"/><path d="M10 1C10 0.447715 10.4477 0 11 0C11.5523 0 12 0.447715 12 1C12 1.55228 11.5523 2 11 2C10.4477 2 10 1.55228 10 1Z" fill="#13AAF7"/><path d="M15 1C15 0.447715 15.4477 0 16 0C16.5523 0 17 0.447715 17 1C17 1.55228 16.5523 2 16 2C15.4477 2 15 1.55228 15 1Z" fill="#13AAF7"/><path d="M20 1C20 0.447715 20.4477 0 21 0C21.5523 0 22 0.447715 22 1C22 1.55228 21.5523 2 21 2C20.4477 2 20 1.55228 20 1Z" fill="#13AAF7"/><path d="M25 1C25 0.447715 25.4477 0 26 0C26.5523 0 27 0.447715 27 1C27 1.55228 26.5523 2 26 2C25.4477 2 25 1.55228 25 1Z" fill="#13AAF7"/><path d="M30 1C30 0.447715 30.4477 0 31 0C31.5523 0 32 0.447715 32 1C32 1.55228 31.5523 2 31 2C30.4477 2 30 1.55228 30 1Z" fill="#13AAF7"/><path d="M35 1C35 0.447715 35.4477 0 36 0C36.5523 0 37 0.447715 37 1C37 1.55228 36.5523 2 36 2C35.4477 2 35 1.55228 35 1Z" fill="#13AAF7"/><path d="M40 1C40 0.447715 40.4477 0 41 0C41.5523 0 42 0.447715 42 1C42 1.55228 41.5523 2 41 2C40.4477 2 40 1.55228 40 1Z" fill="#13AAF7"/><path d="M45 1C45 0.447715 45.4477 0 46 0C46.5523 0 47 0.447715 47 1C47 1.55228 46.5523 2 46 2C45.4477 2 45 1.55228 45 1Z" fill="#13AAF7"/><path d="M50 1C50 0.447715 50.4477 0 51 0C51.5523 0 52 0.447715 52 1C52 1.55228 51.5523 2 51 2C50.4477 2 50 1.55228 50 1Z" fill="#13AAF7"/><path d="M55 1C55 0.447715 55.4477 0 56 0C56.5523 0 57 0.447715 57 1C57 1.55228 56.5523 2 56 2C55.4477 2 55 1.55228 55 1Z" fill="#13AAF7"/><path d="M60 1C60 0.447715 60.4477 0 61 0C61.5523 0 62 0.447715 62 1C62 1.55228 61.5523 2 61 2C60.4477 2 60 1.55228 60 1Z" fill="#13AAF7"/><path d="M65 1C65 0.447715 65.4477 0 66 0C66.5523 0 67 0.447715 67 1C67 1.55228 66.5523 2 66 2C65.4477 2 65 1.55228 65 1Z" fill="#13AAF7"/><path d="M70 1C70 0.447715 70.4477 0 71 0C71.5523 0 72 0.447715 72 1C72 1.55228 71.5523 2 71 2C70.4477 2 70 1.55228 70 1Z" fill="#13AAF7"/><path d="M75 1C75 0.447715 75.4477 0 76 0C76.5523 0 77 0.447715 77 1C77 1.55228 76.5523 2 76 2C75.4477 2 75 1.55228 75 1Z" fill="#13AAF7"/><path d="M80 1C80 0.447715 80.4477 0 81 0C81.5523 0 82 0.447715 82 1C82 1.55228 81.5523 2 81 2C80.4477 2 80 1.55228 80 1Z" fill="#13AAF7"/><path d="M85 1C85 0.447715 85.4477 0 86 0C86.5523 0 87 0.447715 87 1C87 1.55228 86.5523 2 86 2C85.4477 2 85 1.55228 85 1Z" fill="#13AAF7"/><path d="M90 1C90 0.447715 90.4477 0 91 0C91.5523 0 92 0.447715 92 1C92 1.55228 91.5523 2 91 2C90.4477 2 90 1.55228 90 1Z" fill="#13AAF7"/><path d="M95 1C95 0.447715 95.4477 0 96 0C96.5523 0 97 0.447715 97 1C97 1.55228 96.5523 2 96 2C95.4477 2 95 1.55228 95 1Z" fill="#13AAF7"/><path d="M100 1C100 0.447715 100.448 0 101 0C101.552 0 102 0.447715 102 1C102 1.55228 101.552 2 101 2C100.448 2 100 1.55228 100 1Z" fill="#13AAF7"/><path d="M105 1C105 0.447715 105.448 0 106 0C106.552 0 107 0.447715 107 1C107 1.55228 106.552 2 106 2C105.448 2 105 1.55228 105 1Z" fill="#13AAF7"/><path d="M110 1C110 0.447715 110.448 0 111 0C111.552 0 112 0.447715 112 1C112 1.55228 111.552 2 111 2C110.448 2 110 1.55228 110 1Z" fill="#13AAF7"/><path d="M115 1C115 0.447715 115.448 0 116 0C116.552 0 117 0.447715 117 1C117 1.55228 116.552 2 116 2C115.448 2 115 1.55228 115 1Z" fill="#13AAF7"/><path d="M120 1C120 0.447715 120.448 0 121 0C121.552 0 122 0.447715 122 1C122 1.55228 121.552 2 121 2C120.448 2 120 1.55228 120 1Z" fill="#13AAF7"/><path d="M125 1C125 0.447715 125.448 0 126 0C126.552 0 127 0.447715 127 1C127 1.55228 126.552 2 126 2C125.448 2 125 1.55228 125 1Z" fill="#13AAF7"/><path d="M130 1C130 0.447715 130.448 0 131 0C131.552 0 132 0.447715 132 1C132 1.55228 131.552 2 131 2C130.448 2 130 1.55228 130 1Z" fill="#13AAF7"/><path d="M135 1C135 0.447715 135.448 0 136 0C136.552 0 137 0.447715 137 1C137 1.55228 136.552 2 136 2C135.448 2 135 1.55228 135 1Z" fill="#13AAF7"/><path d="M140 1C140 0.447715 140.448 0 141 0C141.552 0 142 0.447715 142 1C142 1.55228 141.552 2 141 2C140.448 2 140 1.55228 140 1Z" fill="#13AAF7"/><path d="M145 1C145 0.447715 145.448 0 146 0C146.552 0 147 0.447715 147 1C147 1.55228 146.552 2 146 2C145.448 2 145 1.55228 145 1Z" fill="#13AAF7"/><path d="M150 1C150 0.447715 150.448 0 151 0C151.552 0 152 0.447715 152 1C152 1.55228 151.552 2 151 2C150.448 2 150 1.55228 150 1Z" fill="#13AAF7"/><path d="M155 1C155 0.447715 155.448 0 156 0C156.552 0 157 0.447715 157 1C157 1.55228 156.552 2 156 2C155.448 2 155 1.55228 155 1Z" fill="#13AAF7"/><path d="M160 1C160 0.447715 160.448 0 161 0C161.552 0 162 0.447715 162 1C162 1.55228 161.552 2 161 2C160.448 2 160 1.55228 160 1Z" fill="#13AAF7"/><path d="M165 1C165 0.447715 165.448 0 166 0C166.552 0 167 0.447715 167 1C167 1.55228 166.552 2 166 2C165.448 2 165 1.55228 165 1Z" fill="#13AAF7"/><path d="M170 1C170 0.447715 170.448 0 171 0C171.552 0 172 0.447715 172 1C172 1.55228 171.552 2 171 2C170.448 2 170 1.55228 170 1Z" fill="#13AAF7"/><path d="M175 1C175 0.447715 175.448 0 176 0C176.552 0 177 0.447715 177 1C177 1.55228 176.552 2 176 2C175.448 2 175 1.55228 175 1Z" fill="#13AAF7"/><path d="M180 1C180 0.447715 180.448 0 181 0C181.552 0 182 0.447715 182 1C182 1.55228 181.552 2 181 2C180.448 2 180 1.55228 180 1Z" fill="#13AAF7"/><path d="M185 1C185 0.447715 185.448 0 186 0C186.552 0 187 0.447715 187 1C187 1.55228 186.552 2 186 2C185.448 2 185 1.55228 185 1Z" fill="#13AAF7"/><path d="M190 1C190 0.447715 190.448 0 191 0C191.552 0 192 0.447715 192 1C192 1.55228 191.552 2 191 2C190.448 2 190 1.55228 190 1Z" fill="#13AAF7"/><path d="M195 1C195 0.447715 195.448 0 196 0C196.552 0 197 0.447715 197 1C197 1.55228 196.552 2 196 2C195.448 2 195 1.55228 195 1Z" fill="#13AAF7"/><path d="M200 1C200 0.447715 200.448 0 201 0C201.552 0 202 0.447715 202 1C202 1.55228 201.552 2 201 2C200.448 2 200 1.55228 200 1Z" fill="#13AAF7"/><path d="M205 1C205 0.447715 205.448 0 206 0C206.552 0 207 0.447715 207 1C207 1.55228 206.552 2 206 2C205.448 2 205 1.55228 205 1Z" fill="#13AAF7"/><path d="M210 1C210 0.447715 210.448 0 211 0C211.552 0 212 0.447715 212 1C212 1.55228 211.552 2 211 2C210.448 2 210 1.55228 210 1Z" fill="#13AAF7"/><path d="M215 1C215 0.447715 215.448 0 216 0C216.552 0 217 0.447715 217 1C217 1.55228 216.552 2 216 2C215.448 2 215 1.55228 215 1Z" fill="#13AAF7"/><path d="M220 1C220 0.447715 220.448 0 221 0C221.552 0 222 0.447715 222 1C222 1.55228 221.552 2 221 2C220.448 2 220 1.55228 220 1Z" fill="#13AAF7"/></svg>