<svg width="274" height="49" viewBox="0 0 274 49" fill="none" xmlns="http://www.w3.org/2000/svg"><path d="M0 0.0999756H14.9L21.3 14L13.8 29.2L0 0.0999756Z" fill="#152843"/><path d="M60.2002 0.0999756L50.0002 22.5L42.2002 6.19998H27.7002L41.8002 37.8H57.3002L75.2002 0.0999756H60.2002Z" fill="#152843"/><path d="M42.4999 6.19995H27.4999L8.3999 48.1H22.5999L42.4999 6.19995Z" fill="#13AAF7"/><path d="M120.1 4.6C123 7.6 124.5 11.2 124.5 15.5C124.5 19.8 123 23.4 120.1 26.4C117.2 29.4 113.6 30.9 109.5 30.9C105.7 30.9 102.5 29.7 99.8 27.3C97.1 24.9 95.4 21.9 94.8 18.3H90.8V30.3H84.5V0.7H90.8V12.3H94.8C95.4 8.9 97.1 6 99.8 3.6C102.5 1.2 105.8 0 109.5 0C113.6 0.1 117.1 1.6 120.1 4.6ZM115.6 22.4C117.3 20.6 118.2 18.2 118.2 15.5C118.2 12.8 117.3 10.4 115.6 8.6C113.9 6.8 111.9 5.8 109.5 5.8C107.1 5.8 105.1 6.7 103.4 8.6C101.7 10.4 100.8 12.8 100.8 15.5C100.8 18.2 101.7 20.6 103.4 22.4C105.1 24.2 107.1 25.2 109.5 25.2C111.9 25.2 113.9 24.3 115.6 22.4Z" fill="#13AAF7"/><path d="M149 30.3H135.6V0.699951H148.3C151 0.699951 153.2 1.49995 154.9 2.99995C156.6 4.59995 157.5 6.39995 157.5 8.49995C157.5 9.29995 157.4 9.99995 157.2 10.7C157 11.4 156.7 12 156.4 12.5C156.1 13 155.7 13.4 155.4 13.7C155.1 14 154.8 14.3 154.6 14.4L154.2 14.6C154.3 14.7 154.5 14.7 154.7 14.8C154.9 14.9 155.3 15.2 155.9 15.6C156.5 16 157 16.4 157.4 16.9C157.8 17.4 158.2 18 158.6 18.9C159 19.6999 159.1 20.6 159.1 21.6C159.1 24 158.2 26 156.3 27.7C154.3 29.4 151.9 30.3 149 30.3ZM147.8 5.99995H142V12.3H147.9C148.9 12.3 149.8 12 150.4 11.4C151 10.8 151.3 10.1 151.3 9.09995C151.3 8.09995 151 7.39995 150.4 6.79995C149.7 6.29995 148.9 5.99995 147.8 5.99995ZM142 25H148.7C149.9 25 150.8 24.6 151.6 23.9C152.4 23.1999 152.7 22.3 152.7 21.2C152.7 20.1 152.3 19.2 151.6 18.5C150.8 17.7999 149.9 17.4 148.7 17.4H142V25Z" fill="#152843"/><path d="M196.6 30.3H190.3V11.5L175.8 30.3H170.3V0.699951H176.6V19.5L191.1 0.699951H196.6V30.3Z" fill="#152843"/><path d="M234.1 0.699951V30.2H227.8V6.39995H219.2V9.79995C219.2 14 219 17.5 218.5 20.3C218 23.1 217.4 25.3 216.5 26.8C215.6 28.3 214.6 29.4 213.5 30C212.4 30.6 211.1 30.9 209.5 30.9C208.9 30.9 208.3 30.8 207.6 30.7C207 30.6 206.5 30.4 206.2 30.3L205.7 30.1V24.1C206.4 24.4 207.1 24.5 207.8 24.5C208.9 24.5 209.8 24.2 210.5 23.5C211.2 22.7999 211.7 21.4 212.2 19.2C212.7 17 212.9 13.8 212.9 9.79995V0.699951H234.1Z" fill="#152843"/><path d="M261.3 0.0999756C262.9 0.0999756 264.3 0.299976 265.7 0.699976C267.1 1.09998 268.3 1.59998 269.1 2.19998C270 2.79998 270.8 3.39998 271.5 3.89998C272.2 4.49998 272.7 4.99998 273 5.39998L273.5 5.99998L269.5 9.99998C269.4 9.89997 269.3 9.69998 269.2 9.49998C269.1 9.29998 268.7 8.99998 268.2 8.49998C267.7 7.99998 267.2 7.59998 266.6 7.19998C266 6.79998 265.2 6.49998 264.3 6.19998C263.3 5.89998 262.4 5.69998 261.4 5.69998C258.6 5.69998 256.3 6.59998 254.5 8.49998C252.6 10.4 251.7 12.7 251.7 15.4C251.7 18.2 252.6 20.5 254.5 22.3C256.4 24.2 258.7 25.1 261.4 25.1C262.5 25.1 263.5 25 264.5 24.7C265.5 24.4 266.3 24.1 266.9 23.6C267.5 23.2 268.1 22.8 268.6 22.4C269.1 22 269.5 21.6 269.7 21.3L270 20.9L273.8 24.9C273.7 25.1 273.5 25.3 273.3 25.5C273.1 25.8 272.6 26.2 271.8 26.9C271 27.6 270.2 28.2 269.3 28.7C268.4 29.2 267.3 29.7 265.8 30.1C264.4 30.5 262.9 30.7 261.3 30.7C256.8 30.7 253 29.2 249.9 26.2C246.8 23.2 245.3 19.6 245.3 15.3C245.3 11.1 246.8 7.39998 249.9 4.39998C253 1.59998 256.8 0.0999756 261.3 0.0999756Z" fill="#152843"/><path d="M87.2999 48H84.3999V41.2H87.1999C87.7999 41.2 88.1999 41.4 88.5999 41.7C88.9999 42.1 89.1999 42.5 89.1999 43C89.1999 43.3 89.0999 43.5 88.9999 43.8C88.8999 44 88.7999 44.2 88.6999 44.3L88.4999 44.4C88.4999 44.4 88.5999 44.4 88.5999 44.5C88.5999 44.5 88.6999 44.6 88.7999 44.7C88.8999 44.8 88.9999 44.9 89.0999 45C89.1999 45.1 89.2999 45.3 89.2999 45.5C89.3999 45.7 89.3999 45.9 89.3999 46.1C89.3999 46.6 89.1999 47.1 88.7999 47.5C88.3999 47.8 87.8999 48 87.2999 48ZM87.0999 42.1H85.3999V44H87.0999C87.3999 44 87.5999 43.9 87.7999 43.7C87.9999 43.5 88.0999 43.3 88.0999 43C88.0999 42.7 87.9999 42.5 87.7999 42.3C87.5999 42.2 87.3999 42.1 87.0999 42.1ZM85.3999 47.1H87.2999C87.5999 47.1 87.8999 47 88.0999 46.8C88.2999 46.6 88.3999 46.3 88.3999 46C88.3999 45.7 88.2999 45.4 88.0999 45.2C87.8999 45 87.5999 44.9 87.2999 44.9H85.3999V47.1Z" fill="#152843"/><path d="M91 48L93.8 41.2H94.9L97.7 48H96.6L95.9 46.2H92.9L92.2 48H91ZM94.4 42.4L93.3 45.2H95.5L94.4 42.4Z" fill="#152843"/><path d="M108.1 41.2V48H99.8999V41.2H101V47.1H103.5V41.2H104.6V47.1H107.1V41.2H108.1Z" fill="#152843"/><path d="M116.8 48H115.7V43.1L111.9 48H111V41.2H112.1V46.1L115.9 41.2H116.8V48Z" fill="#152843"/><path d="M125.6 48H122.7V41.2H125.5C126.1 41.2 126.5 41.4 126.9 41.7C127.3 42.1 127.5 42.5 127.5 43C127.5 43.3 127.4 43.5 127.3 43.8C127.2 44 127.1 44.2 127 44.3L126.8 44.4C126.8 44.4 126.9 44.4 126.9 44.5C126.9 44.5 127 44.6 127.1 44.7C127.2 44.8 127.3 44.9 127.4 45C127.5 45.1 127.6 45.3 127.6 45.5C127.7 45.7 127.7 45.9 127.7 46.1C127.7 46.6 127.5 47.1 127.1 47.5C126.7 47.8 126.2 48 125.6 48ZM125.4 42.1H123.7V44H125.4C125.7 44 125.9 43.9 126.1 43.7C126.3 43.5 126.4 43.3 126.4 43C126.4 42.7 126.3 42.5 126.1 42.3C125.9 42.2 125.7 42.1 125.4 42.1ZM123.7 47.1H125.6C125.9 47.1 126.2 47 126.4 46.8C126.6 46.6 126.7 46.3 126.7 46C126.7 45.7 126.6 45.4 126.4 45.2C126.2 45 125.9 44.9 125.6 44.9H123.7V47.1Z" fill="#152843"/><path d="M131 47.1C130.3 46.4 130 45.6 130 44.6C130 43.6 130.3 42.8 131 42.1C131.7 41.4 132.5 41.1 133.6 41.1C134.6 41.1 135.5 41.4 136.2 42.1C136.9 42.8 137.2 43.6 137.2 44.6C137.2 45.6 136.9 46.4 136.2 47.1C135.5 47.8 134.7 48.1 133.6 48.1C132.5 48.1 131.7 47.8 131 47.1ZM131.7 42.8C131.2 43.3 131 43.9 131 44.6C131 45.3 131.2 45.9 131.7 46.4C132.2 46.9 132.8 47.1 133.5 47.1C134.2 47.1 134.8 46.9 135.3 46.4C135.8 45.9 136 45.3 136 44.6C136 43.9 135.8 43.3 135.3 42.8C134.8 42.3 134.2 42.1 133.5 42.1C132.8 42.1 132.2 42.3 131.7 42.8Z" fill="#152843"/><path d="M142.8 44.4C142.8 44.4 142.9 44.4 142.9 44.5C143 44.5 143.1 44.6 143.2 44.7C143.3 44.8 143.5 44.9 143.6 45C143.7 45.1 143.8 45.3 143.9 45.5C144 45.7 144 45.9 144 46.2C144 46.8 143.8 47.2 143.3 47.6C142.8 48 142.2 48.2 141.4 48.2C141.1 48.2 140.8 48.2 140.5 48.1C140.2 48 140 47.9 139.8 47.8C139.6 47.7 139.4 47.6 139.3 47.5C139.1 47.4 139 47.3 139 47.2L138.9 47.1L139.6 46.4C139.6 46.4 139.6 46.4 139.7 46.5C139.7 46.5 139.8 46.6 139.9 46.7C140 46.8 140.2 46.9 140.3 47C140.4 47.1 140.6 47.1 140.8 47.2C141 47.3 141.2 47.3 141.5 47.3C142 47.3 142.4 47.2 142.6 47C142.9 46.8 143 46.5 143 46.2C143 45.9 142.9 45.6 142.6 45.4C142.3 45.2 141.9 45.1 141.5 45.1H140.7V44.1H141.5C141.9 44.1 142.2 44 142.4 43.8C142.6 43.6 142.7 43.4 142.7 43.1C142.7 42.8 142.6 42.6 142.4 42.5C142.2 42.4 141.9 42.2 141.5 42.2C141.2 42.2 140.9 42.3 140.7 42.4C140.4 42.5 140.2 42.6 140.1 42.8L139.9 43L139.2 42.3L139.3 42.2C139.3 42.2 139.4 42.1 139.6 42C139.8 41.9 139.9 41.8 140.1 41.7C140.3 41.6 140.5 41.5 140.8 41.5C141.1 41.4 141.3 41.4 141.6 41.4C142.3 41.4 142.9 41.6 143.3 41.9C143.7 42.2 143.9 42.7 143.9 43.2C143.9 43.4 143.9 43.6 143.8 43.8C143.7 44 143.7 44.1 143.6 44.2C143.5 44.3 143.4 44.4 143.3 44.5C143.2 44.6 143.1 44.6 143.1 44.7L142.8 44.4Z" fill="#152843"/><path d="M150.1 44.5L152.7 41.2H153.6V48H152.5V43L150 46.1L147.5 43V48H146.4V41.2H147.3L150.1 44.5Z" fill="#152843"/><path d="M157.3 47.1C156.6 46.4 156.3 45.6 156.3 44.6C156.3 43.6 156.6 42.8 157.3 42.1C158 41.4 158.8 41.1 159.9 41.1C160.9 41.1 161.8 41.4 162.5 42.1C163.2 42.8 163.5 43.6 163.5 44.6C163.5 45.6 163.2 46.4 162.5 47.1C161.8 47.8 161 48.1 159.9 48.1C158.8 48.1 158 47.8 157.3 47.1ZM158 42.8C157.5 43.3 157.3 43.9 157.3 44.6C157.3 45.3 157.5 45.9 158 46.4C158.5 46.9 159.1 47.1 159.8 47.1C160.5 47.1 161.1 46.9 161.6 46.4C162.1 45.9 162.3 45.3 162.3 44.6C162.3 43.9 162.1 43.3 161.6 42.8C161.1 42.3 160.5 42.1 159.8 42.1C159.1 42.1 158.5 42.3 158 42.8Z" fill="#152843"/><path d="M169 48V45.5L168.3 44.8L166.1 48H164.8L167.6 44L165 41.2H166.4L169 44.1V41.2H170.1V44.1L172.8 41.2H174.2L171.6 44L174.4 48H173L170.8 44.8L170.1 45.5V48H169Z" fill="#152843"/><path d="M181.8 41.2V48H180.7V45H177.3V48H176.2V41.2H177.3V44.1H180.7V41.2H181.8Z" fill="#152843"/><path d="M185.4 47.1C184.7 46.4 184.4 45.6 184.4 44.6C184.4 43.6 184.7 42.8 185.4 42.1C186.1 41.4 186.9 41.1 188 41.1C189 41.1 189.9 41.4 190.6 42.1C191.3 42.8 191.6 43.6 191.6 44.6C191.6 45.6 191.3 46.4 190.6 47.1C189.9 47.8 189.1 48.1 188 48.1C186.9 48.1 186.1 47.8 185.4 47.1ZM186.2 42.8C185.7 43.3 185.5 43.9 185.5 44.6C185.5 45.3 185.7 45.9 186.2 46.4C186.7 46.9 187.3 47.1 188 47.1C188.7 47.1 189.3 46.9 189.8 46.4C190.3 45.9 190.5 45.3 190.5 44.6C190.5 43.9 190.3 43.3 189.8 42.8C189.3 42.3 188.7 42.1 188 42.1C187.3 42.1 186.7 42.3 186.2 42.8Z" fill="#152843"/><path d="M197.3 41.1C197.6 41.1 198 41.1 198.3 41.2C198.6 41.3 198.9 41.4 199.1 41.5C199.3 41.6 199.5 41.8 199.6 41.9C199.8 42 199.9 42.1 199.9 42.2L200 42.3L199.3 43C199.3 43 199.3 42.9 199.2 42.9C199.2 42.9 199.1 42.8 199 42.7C198.9 42.6 198.7 42.5 198.6 42.4C198.4 42.3 198.3 42.2 198 42.2C197.8 42.1 197.5 42.1 197.2 42.1C196.5 42.1 195.9 42.3 195.4 42.8C194.9 43.3 194.7 43.9 194.7 44.6C194.7 45.3 194.9 45.9 195.4 46.4C195.9 46.9 196.5 47.1 197.2 47.1C197.5 47.1 197.7 47.1 198 47C198.2 46.9 198.4 46.8 198.6 46.7C198.8 46.6 198.9 46.5 199 46.4C199.1 46.3 199.2 46.2 199.3 46.1L199.4 46L200.1 46.7C200.1 46.7 200 46.8 200 46.9C199.9 47 199.8 47.1 199.7 47.2C199.5 47.4 199.3 47.5 199.1 47.6C198.9 47.7 198.6 47.8 198.3 47.9C198 48 197.6 48 197.3 48C196.3 48 195.4 47.7 194.7 47C194 46.3 193.7 45.5 193.7 44.5C193.7 43.5 194 42.7 194.7 42C195.4 41.4 196.3 41.1 197.3 41.1Z" fill="#152843"/><path d="M201.7 41.2H206.9V42.2H204.9V48H203.8V42.2H201.8V41.2H201.7Z" fill="#152843"/><path d="M214.8 48H213.7V43.1L209.9 48H209V41.2H210.1V46.1L213.9 41.2H214.8V48Z" fill="#152843"/><path d="M226 41.2V48H224.9V42.2H222.4V43.3C222.4 44.3 222.4 45.1 222.3 45.8C222.2 46.5 222.1 47 221.9 47.3C221.7 47.6 221.5 47.9 221.3 48C221.1 48.1 220.8 48.2 220.5 48.2C220.4 48.2 220.3 48.2 220.1 48.2C220 48.2 219.9 48.1 219.8 48.1H219.7V47.1C219.9 47.2 220.1 47.2 220.2 47.2C220.4 47.2 220.5 47.2 220.7 47.1C220.8 47 221 46.8 221.1 46.6C221.2 46.3 221.3 46 221.4 45.4C221.5 44.9 221.5 44.2 221.5 43.4V41.4H226V41.2Z" fill="#152843"/><path d="M234.7 48H233.6V43.1L229.8 48H228.9V41.2H230V46.1L233.8 41.2H234.7V48Z" fill="#152843"/><path d="M241 44.3999C241 44.3999 241.1 44.3999 241.1 44.4999C241.2 44.4999 241.3 44.5999 241.4 44.6999C241.5 44.7999 241.7 44.8999 241.8 44.9999C241.9 45.0999 242 45.2999 242.1 45.4999C242.2 45.6999 242.2 45.8999 242.2 46.1999C242.2 46.7999 242 47.1999 241.5 47.5999C241 47.9999 240.4 48.1999 239.6 48.1999C239.3 48.1999 239 48.1999 238.7 48.0999C238.4 47.9999 238.2 47.8999 238 47.7999C237.8 47.6999 237.6 47.5999 237.5 47.4999C237.3 47.3999 237.2 47.2999 237.2 47.1999L237.1 47.0999L237.8 46.3999C237.8 46.3999 237.8 46.3999 237.9 46.4999C237.9 46.4999 238 46.5999 238.1 46.6999C238.2 46.7999 238.4 46.8999 238.5 46.9999C238.6 47.0999 238.8 47.0999 239 47.1999C239.2 47.2999 239.4 47.2999 239.7 47.2999C240.2 47.2999 240.6 47.1999 240.8 46.9999C241.1 46.7999 241.2 46.4999 241.2 46.1999C241.2 45.8999 241.1 45.5999 240.8 45.3999C240.5 45.1999 240.1 45.0999 239.7 45.0999H238.9V44.0999H239.7C240.1 44.0999 240.4 43.9999 240.6 43.7999C240.8 43.5999 240.9 43.3999 240.9 43.0999C240.9 42.7999 240.8 42.5999 240.6 42.4999C240.4 42.3999 240 42.0999 239.6 42.0999C239.3 42.0999 239 42.1999 238.8 42.2999C238.5 42.3999 238.3 42.4999 238.2 42.6999L238 42.8999L237.3 42.1999L237.4 42.0999C237.4 42.0999 237.5 41.9999 237.7 41.8999C237.9 41.7999 238 41.6999 238.2 41.5999C238.4 41.4999 238.6 41.3999 238.9 41.3999C239.2 41.2999 239.4 41.2999 239.7 41.2999C240.4 41.2999 241 41.4999 241.4 41.7999C241.8 42.0999 242 42.5999 242 43.0999C242 43.2999 242 43.4999 241.9 43.6999C241.8 43.8999 241.8 43.9999 241.7 44.0999C241.6 44.1999 241.5 44.2999 241.4 44.3999C241.3 44.4999 241.2 44.4999 241.2 44.5999L241 44.3999Z" fill="#152843"/><path d="M250.6 48H249.5V43.1L245.7 48H244.8V41.2H245.9V46.1L249.7 41.2H250.6V48Z" fill="#152843"/><path d="M259 41.2V48H257.9V45H254.5V48H253.4V41.2H254.5V44.1H257.9V41.2H259Z" fill="#152843"/><path d="M261.9 48V41.2H266.3V42.2H263V48H261.9Z" fill="#152843"/><path d="M267 48L269.8 41.2H270.9L273.7 48H272.6L271.9 46.2H268.9L268.2 48H267ZM270.4 42.4L269.3 45.2H271.5L270.4 42.4Z" fill="#152843"/></svg>