<svg width="530" height="386" viewBox="0 0 530 386" fill="none" xmlns="http://www.w3.org/2000/svg"><path d="M520.554 53.3618L473.852 8.97674C467.554 2.99225 459.683 0 450.762 0C441.842 0 433.97 2.99225 427.673 8.97674L203.079 222.424L102.851 126.672C96.5545 120.687 88.6832 117.695 79.7624 117.695C70.8416 117.695 62.9703 120.687 56.6733 126.672L9.9703 171.057C3.14851 177.041 0 184.522 0 193C0 201.478 3.14851 208.959 9.44554 214.943L133.287 332.638L179.99 377.023C186.287 383.008 194.158 386 203.079 386C212 386 219.871 383.008 226.168 377.023L272.871 332.638L520.554 97.2481C526.852 91.2636 530 83.7829 530 75.3049C530 66.8269 526.852 59.3463 520.554 53.3618Z" fill="#fff"/></svg>