<svg width="20" height="12" viewBox="0 0 20 12" fill="none" xmlns="http://www.w3.org/2000/svg"><path d="M16.5813 6.58018C16.2706 6.18726 16.3605 6.01512 16.5813 5.6671C16.585 5.66336 19.1412 2.1308 19.4069 0.933315C19.5379 0.495487 19.4069 0.177406 18.7744 0.177406H16.6786C16.1434 0.177406 15.9001 0.454323 15.7691 0.761178C15.7691 0.761178 14.7025 3.31331 13.1943 4.96733C12.7077 5.44632 12.4832 5.59974 12.2175 5.59974C12.0865 5.59974 11.8844 5.44632 11.8844 5.00849V0.925831C11.8844 0.401934 11.7347 0.169922 11.2931 0.169922H7.99961C7.66653 0.169922 7.46443 0.41316 7.46443 0.64143C7.46443 1.13913 8.22042 1.2514 8.29902 2.65095V5.68207C8.29902 6.34443 8.17926 6.46792 7.90979 6.46792C7.19871 6.46792 5.46965 3.90456 4.4442 0.970737C4.23462 0.401934 4.03252 0.169922 3.49359 0.169922H1.39777C0.798961 0.169922 0.679199 0.446839 0.679199 0.753693C0.679199 1.2963 1.39028 4.0056 3.99135 7.58307C5.72415 10.0229 8.16429 11.3476 10.3836 11.3476C11.716 11.3476 11.8806 11.052 11.8806 10.5468C11.8806 8.21549 11.7609 7.9947 12.427 7.9947C12.7377 7.9947 13.2691 8.14813 14.5154 9.3269C15.9375 10.7227 16.1733 11.3476 16.9705 11.3476H19.0663C19.6651 11.3476 19.9645 11.052 19.7924 10.4757C19.3919 9.2558 16.701 6.74483 16.5813 6.58018Z" fill="#fff"/></svg>