<svg width="16" height="16" viewBox="0 0 16 16" fill="none" xmlns="http://www.w3.org/2000/svg"><path d="M8.29672 0.353516C4.23934 0.353516 0.947266 3.64559 0.947266 7.70297C0.947266 9.32763 1.47314 10.824 2.36243 12.0425L1.42611 14.813L4.34623 13.9023C5.48776 14.6292 6.84307 15.0524 8.29672 15.0524C12.3541 15.0524 15.6462 11.7603 15.6462 7.70297C15.6462 3.64559 12.3541 0.353516 8.29672 0.353516ZM11.6615 11.6449C10.3275 12.1793 8.73708 11.662 6.99699 10.3409C5.25689 9.0198 4.11108 7.15999 4.03412 5.77903C3.95716 4.39807 5.0816 3.70117 5.69298 3.70545C6.30437 3.70972 6.97561 5.66359 6.98416 5.96287C6.99271 6.26642 6.23596 6.80513 6.20603 7.06165C6.17611 7.31818 7.23641 8.5837 7.68533 8.92574C8.12998 9.2635 9.04919 9.91336 9.52376 9.8535C9.99406 9.78937 10.3062 8.8445 10.6054 8.78465C10.9047 8.72479 12.5379 9.53712 12.7004 9.74662C12.8629 9.96039 12.8458 11.1746 11.6615 11.6449Z" fill="#fff"/></svg>