<svg width="17" height="17" viewBox="0 0 17 17" fill="none" xmlns="http://www.w3.org/2000/svg"><g clip-path="url(#clip0_65_2226)" fill="#fff"><path d="M0.976074 8.26335C0.976074 8.36795 1.01094 8.43768 1.08067 8.50741C1.1504 8.57714 1.25499 8.612 1.32472 8.612C7.84448 8.54227 8.50692 6.45037 8.57665 1.32521C8.57665 1.22062 8.54179 1.11602 8.47205 1.08116C8.40233 1.01143 8.29773 0.976562 8.19314 0.976562H3.97447C2.33581 0.976562 0.976074 2.3363 0.976074 3.97495V8.19362C0.976074 8.19362 0.976074 8.22849 0.976074 8.26335C0.976074 8.22849 0.976074 8.26335 0.976074 8.26335Z"/><path d="M1.32472 9.31055C1.22013 9.31055 1.11553 9.34541 1.08067 9.41514C1.01094 9.48487 0.976074 9.58947 0.976074 9.6592V9.69406V9.72893V13.9476C0.976074 15.6211 2.33581 16.946 3.97447 16.946H8.228C8.29773 16.946 8.40233 16.9111 8.47205 16.8414C8.54179 16.7717 8.57665 16.6671 8.57665 16.5973C8.50692 11.4722 7.84448 9.38028 1.32472 9.31055Z"/><path d="M16.9443 8.26335C16.9443 8.36795 16.9095 8.43768 16.8397 8.50741C16.77 8.57714 16.6654 8.612 16.5957 8.612C10.0759 8.54227 9.37862 6.45037 9.34375 1.32521C9.34375 1.22062 9.37861 1.11602 9.44834 1.08116C9.51807 1.01143 9.62267 0.976562 9.6924 0.976562H13.9111C15.5846 0.976562 16.9095 2.3363 16.9095 3.97495V8.19362C16.9443 8.19362 16.9443 8.22849 16.9443 8.26335C16.9443 8.22849 16.9443 8.26335 16.9443 8.26335Z"/><path d="M16.5957 9.31055C16.7003 9.31055 16.8049 9.34541 16.8397 9.41514C16.9095 9.48487 16.9095 9.5546 16.9443 9.6592V9.69406V9.72893V13.9476C16.9443 15.6211 15.5846 16.946 13.9459 16.946H9.6924C9.62267 16.946 9.51807 16.9111 9.44834 16.8414C9.37861 16.7717 9.34375 16.6671 9.34375 16.5973C9.37862 11.4722 10.0759 9.38028 16.5957 9.31055Z"/></g><defs><clipPath id="clip0_65_2226"><path fill="#fff" transform="translate(.976 .977)" d="M0 0H15.968V15.968H0z"/></clipPath></defs></svg>